<svg width="2253" height="460" viewBox="0 0 2253 460" fill="none" xmlns="http://www.w3.org/2000/svg">
<rect y="235.944" width="261.511" height="118.869" fill="black"/>
<rect x="118.869" y="105.188" width="261.511" height="118.869" fill="black"/>
<path d="M512.485 368V160.52H559.222V195.776H561.654C565.976 183.889 573.135 174.613 583.131 167.95C593.127 161.196 605.059 157.819 618.927 157.819C632.975 157.819 644.817 161.241 654.452 168.085C664.178 174.839 671.022 184.069 674.984 195.776H677.145C681.738 184.249 689.482 175.064 700.379 168.22C711.365 161.286 724.377 157.819 739.416 157.819C758.507 157.819 774.086 163.852 786.153 175.919C798.22 187.986 804.254 205.591 804.254 228.735V368H755.22V236.299C755.22 223.422 751.798 214.011 744.954 208.068C738.11 202.034 729.736 199.018 719.83 199.018C708.033 199.018 698.803 202.71 692.139 210.094C685.565 217.388 682.278 226.889 682.278 238.595V368H634.326V234.273C634.326 223.557 631.084 215.002 624.6 208.608C618.206 202.214 609.831 199.018 599.475 199.018C592.451 199.018 586.058 200.819 580.294 204.421C574.531 207.933 569.938 212.931 566.516 219.414C563.095 225.808 561.384 233.282 561.384 241.837V368H512.485ZM913.565 372.187C900.418 372.187 888.576 369.846 878.04 365.163C867.594 360.391 859.309 353.367 853.186 344.091C847.152 334.816 844.135 323.379 844.135 309.781C844.135 298.075 846.297 288.394 850.619 280.74C854.942 273.085 860.84 266.962 868.314 262.369C875.789 257.776 884.208 254.309 893.574 251.968C903.029 249.537 912.8 247.781 922.886 246.7C935.043 245.439 944.903 244.314 952.468 243.323C960.032 242.242 965.525 240.622 968.947 238.46C972.459 236.209 974.215 232.742 974.215 228.059V227.249C974.215 217.073 971.199 209.193 965.165 203.61C959.132 198.027 950.442 195.235 939.095 195.235C927.118 195.235 917.618 197.847 910.594 203.07C903.66 208.293 898.977 214.461 896.546 221.576L850.889 215.092C854.491 202.485 860.435 191.948 868.719 183.484C877.004 174.929 887.135 168.535 899.112 164.303C911.089 159.98 924.327 157.819 938.825 157.819C948.821 157.819 958.771 158.989 968.677 161.331C978.583 163.672 987.633 167.544 995.828 172.948C1004.02 178.261 1010.6 185.51 1015.55 194.695C1020.59 203.88 1023.11 215.362 1023.11 229.14V368H976.106V339.499H974.485C971.514 345.262 967.326 350.665 961.923 355.708C956.61 360.661 949.901 364.668 941.797 367.73C933.782 370.702 924.372 372.187 913.565 372.187ZM926.263 336.257C936.078 336.257 944.588 334.321 951.792 330.448C958.997 326.486 964.535 321.263 968.407 314.779C972.369 308.296 974.35 301.227 974.35 293.572V269.123C972.819 270.384 970.208 271.554 966.516 272.635C962.914 273.716 958.861 274.661 954.359 275.472C949.856 276.282 945.399 277.003 940.986 277.633C936.574 278.263 932.746 278.804 929.505 279.254C922.21 280.244 915.682 281.865 909.918 284.117C904.155 286.368 899.607 289.52 896.275 293.572C892.943 297.534 891.277 302.667 891.277 308.971C891.277 317.976 894.564 324.775 901.138 329.368C907.712 333.96 916.087 336.257 926.263 336.257ZM1072.28 368V160.52H1121.18V368H1072.28ZM1096.87 131.073C1089.12 131.073 1082.46 128.507 1076.87 123.374C1071.29 118.151 1068.5 111.892 1068.5 104.598C1068.5 97.2139 1071.29 90.9553 1076.87 85.8223C1082.46 80.5993 1089.12 77.9878 1096.87 77.9878C1104.7 77.9878 1111.36 80.5993 1116.86 85.8223C1122.44 90.9553 1125.23 97.2139 1125.23 104.598C1125.23 111.892 1122.44 118.151 1116.86 123.374C1111.36 128.507 1104.7 131.073 1096.87 131.073ZM1220.36 91.3605V368H1171.46V91.3605H1220.36ZM1272.8 368V91.3605H1321.7V194.83H1323.73C1326.25 189.787 1329.81 184.429 1334.4 178.756C1338.99 172.993 1345.21 168.085 1353.04 164.032C1360.88 159.89 1370.87 157.819 1383.03 157.819C1399.06 157.819 1413.51 161.916 1426.39 170.111C1439.36 178.216 1449.62 190.238 1457.19 206.177C1464.84 222.026 1468.67 241.477 1468.67 264.53C1468.67 287.313 1464.93 306.675 1457.46 322.614C1449.98 338.553 1439.81 350.71 1426.93 359.085C1414.05 367.46 1399.46 371.647 1383.16 371.647C1371.28 371.647 1361.42 369.666 1353.58 365.704C1345.75 361.741 1339.44 356.969 1334.67 351.385C1329.99 345.712 1326.34 340.354 1323.73 335.311H1320.89V368H1272.8ZM1320.76 264.26C1320.76 277.678 1322.65 289.43 1326.43 299.516C1330.3 309.601 1335.84 317.481 1343.05 323.154C1350.34 328.737 1359.16 331.529 1369.52 331.529C1380.33 331.529 1389.38 328.647 1396.67 322.884C1403.97 317.031 1409.46 309.061 1413.15 298.975C1416.93 288.799 1418.82 277.228 1418.82 264.26C1418.82 251.383 1416.98 239.946 1413.29 229.95C1409.59 219.955 1404.1 212.12 1396.81 206.447C1389.51 200.774 1380.42 197.937 1369.52 197.937C1359.07 197.937 1350.2 200.684 1342.91 206.177C1335.62 211.67 1330.08 219.369 1326.3 229.275C1322.6 239.181 1320.76 250.842 1320.76 264.26ZM1559.14 91.3605V368H1510.24V91.3605H1559.14ZM1699.92 372.052C1679.66 372.052 1662.1 367.595 1647.24 358.68C1632.38 349.764 1620.86 337.292 1612.66 321.263C1604.56 305.234 1600.5 286.503 1600.5 265.071C1600.5 243.638 1604.56 224.862 1612.66 208.743C1620.86 192.624 1632.38 180.107 1647.24 171.192C1662.1 162.276 1679.66 157.819 1699.92 157.819C1720.18 157.819 1737.74 162.276 1752.6 171.192C1767.46 180.107 1778.94 192.624 1787.05 208.743C1795.24 224.862 1799.34 243.638 1799.34 265.071C1799.34 286.503 1795.24 305.234 1787.05 321.263C1778.94 337.292 1767.46 349.764 1752.6 358.68C1737.74 367.595 1720.18 372.052 1699.92 372.052ZM1700.19 332.88C1711.18 332.88 1720.36 329.863 1727.75 323.83C1735.13 317.706 1740.62 309.511 1744.23 299.245C1747.92 288.979 1749.76 277.543 1749.76 264.936C1749.76 252.238 1747.92 240.757 1744.23 230.491C1740.62 220.135 1735.13 211.895 1727.75 205.771C1720.36 199.648 1711.18 196.586 1700.19 196.586C1688.93 196.586 1679.57 199.648 1672.1 205.771C1664.71 211.895 1659.17 220.135 1655.48 230.491C1651.88 240.757 1650.08 252.238 1650.08 264.936C1650.08 277.543 1651.88 288.979 1655.48 299.245C1659.17 309.511 1664.71 317.706 1672.1 323.83C1679.57 329.863 1688.93 332.88 1700.19 332.88ZM1931.34 372.052C1910.63 372.052 1892.85 367.505 1877.99 358.409C1863.22 349.314 1851.83 336.752 1843.81 320.723C1835.89 304.603 1831.93 286.053 1831.93 265.071C1831.93 243.999 1835.98 225.403 1844.08 209.283C1852.19 193.074 1863.62 180.467 1878.39 171.462C1893.25 162.366 1910.81 157.819 1931.07 157.819C1947.91 157.819 1962.82 160.926 1975.78 167.139C1988.84 173.263 1999.24 181.953 2006.99 193.209C2014.73 204.376 2019.14 217.433 2020.22 232.382H1973.49C1971.6 222.386 1967.09 214.056 1959.98 207.392C1952.96 200.639 1943.55 197.262 1931.75 197.262C1921.75 197.262 1912.97 199.963 1905.41 205.366C1897.84 210.679 1891.95 218.334 1887.71 228.329C1883.57 238.325 1881.5 250.302 1881.5 264.26C1881.5 278.398 1883.57 290.555 1887.71 300.731C1891.86 310.817 1897.66 318.607 1905.14 324.1C1912.7 329.503 1921.57 332.204 1931.75 332.204C1938.95 332.204 1945.39 330.854 1951.06 328.152C1956.83 325.36 1961.65 321.353 1965.52 316.13C1969.39 310.907 1972.05 304.558 1973.49 297.084H2020.22C2019.05 311.763 2014.73 324.775 2007.26 336.122C1999.78 347.378 1989.61 356.203 1976.73 362.597C1963.85 368.901 1948.72 372.052 1931.34 372.052ZM2104.95 302.892L2104.82 243.863H2112.65L2187.21 160.52H2244.35L2152.63 262.639H2142.5L2104.95 302.892ZM2060.38 368V91.3605H2109.27V368H2060.38ZM2190.59 368L2123.05 273.581L2156.01 239.136L2249.08 368H2190.59Z" fill="black"/>
</svg>
